<svg width="477.81878662109375px" height="150.79999999999998px" xmlns="http://www.w3.org/2000/svg" viewBox="11.090606689453125 -0.3999999999999915 477.81878662109375 150.79999999999998" style="background: rgba(0, 0, 0, 0); --darkreader-inline-bgimage: initial; --darkreader-inline-bgcolor: rgba(0, 0, 0, 0);" data-darkreader-inline-bgimage="" data-darkreader-inline-bgcolor="" preserveAspectRatio="xMidYMid"><defs><filter id="editing-vr"><feFlood flood-color="rgba(0%,0%,0%,0)" flood-opacity="0.7" result="c1"></feFlood><feFlood flood-color="rgba(0%,0%,0%,0)" flood-opacity="0.7" result="c3"></feFlood><feComposite operator="in" in="c1" in2="SourceAlpha" result="text-c1"></feComposite><feComposite operator="in" in="c3" in2="SourceAlpha" result="text-c3"></feComposite><feOffset in="text-c1" dx="-12" dy="-1" result="text1"></feOffset><feOffset in="text-c3" dx="12" dy="1" result="text3"></feOffset><feBlend in="SourceGraphic" in2="text1" mode="multiply" result="text4"></feBlend><feBlend in="text4" in2="text3" mode="multiply"></feBlend></filter></defs><g filter="url(#editing-vr)"><g transform="translate(81.71498107910156, 96.24999809265137)"><path d="M16.51 0.64L16.51 0.64Q8.51 0.64 3.65-1.41L3.65-1.41L3.65-7.55L3.65-7.55Q9.60-5.25 15.87-5.25L15.87-5.25L15.87-5.25Q21.06-5.25 23.39-6.46L23.39-6.46L23.39-6.46Q25.73-7.68 25.73-11.01L25.73-11.01L25.73-11.01Q25.73-13.12 24.74-14.37L24.74-14.37L24.74-14.37Q23.74-15.62 21.50-16.51L21.50-16.51L21.50-16.51Q19.26-17.41 14.78-18.56L14.78-18.56L14.78-18.56Q8.13-20.29 5.44-22.94L5.44-22.94L5.44-22.94Q2.75-25.60 2.75-30.27L2.75-30.27L2.75-30.27Q2.75-35.78 6.78-38.82L6.78-38.82L6.78-38.82Q10.82-41.86 18.56-41.86L18.56-41.86L18.56-41.86Q21.95-41.86 25.12-41.38L25.12-41.38L25.12-41.38Q28.29-40.90 30.27-40.19L30.27-40.19L30.27-34.05L30.27-34.05Q25.41-35.90 19.52-35.90L19.52-35.90L19.52-35.90Q14.66-35.90 12.22-34.62L12.22-34.62L12.22-34.62Q9.79-33.34 9.79-30.27L9.79-30.27L9.79-30.27Q9.79-28.42 10.69-27.30L10.69-27.30L10.69-27.30Q11.58-26.18 13.66-25.31L13.66-25.31L13.66-25.31Q15.74-24.45 19.90-23.42L19.90-23.42L19.90-23.42Q27.14-21.57 29.95-18.62L29.95-18.62L29.95-18.62Q32.77-15.68 32.77-11.01L32.77-11.01L32.77-11.01Q32.77-5.50 28.64-2.43L28.64-2.43L28.64-2.43Q24.51 0.64 16.51 0.64L16.51 0.64ZM35.46 0L51.20-41.22L59.01-41.22L74.62 0L67.46 0L63.36-10.62L46.78-10.62L42.69 0L35.46 0ZM47.87-16L62.21-16L55.04-34.88L47.87-16ZM81.47 0L81.47-41.22L88.45-41.22L88.45 0L81.47 0ZM96.51 0L96.51-41.22L113.22-41.22L113.22-41.22Q122.50-41.22 126.85-36.29L126.85-36.29L126.85-36.29Q131.20-31.36 131.20-20.35L131.20-20.35L131.20-20.35Q131.20-9.79 126.85-4.90L126.85-4.90L126.85-4.90Q122.50 0 113.22 0L113.22 0L96.51 0ZM103.49-5.38L112.13-5.38L112.13-5.38Q116.42-5.38 119.01-6.62L119.01-6.62L119.01-6.62Q121.60-7.87 122.91-11.14L122.91-11.14L122.91-11.14Q124.22-14.40 124.22-20.35L124.22-20.35L124.22-20.35Q124.22-26.37 123.01-29.70L123.01-29.70L123.01-29.70Q121.79-33.02 119.20-34.40L119.20-34.40L119.20-34.40Q116.61-35.78 112.13-35.78L112.13-35.78L103.49-35.78L103.49-5.38ZM138.05 0L138.05-41.22L156.99-41.22L156.99-41.22Q163.71-41.22 166.98-37.76L166.98-37.76L166.98-37.76Q170.24-34.30 170.24-28.03L170.24-28.03L170.24-28.03Q170.24-23.62 168.03-20.58L168.03-20.58L168.03-20.58Q165.82-17.54 161.79-16.32L161.79-16.32L161.79-16.32Q162.88-15.55 163.52-14.62L163.52-14.62L163.52-14.62Q164.16-13.70 164.86-11.97L164.86-11.97L170.05 0L162.88 0L157.82-11.52L157.82-11.52Q157.06-13.25 156.03-13.92L156.03-13.92L156.03-13.92Q155.01-14.59 152.77-14.59L152.77-14.59L145.02-14.59L145.02 0L138.05 0ZM145.02-20.22L155.14-20.22L155.14-20.22Q163.26-20.22 163.26-28.03L163.26-28.03L163.26-28.03Q163.26-35.78 155.78-35.78L155.78-35.78L145.02-35.78L145.02-20.22ZM177.09 0L177.09-41.22L205.82-41.22L205.82-35.78L184.06-35.78L184.06-23.30L203.46-23.30L203.46-17.92L184.06-17.92L184.06-5.38L205.82-5.38L205.82 0L177.09 0ZM209.41 0L224.13-20.54L209.73-41.22L217.79-41.22L228.29-25.92L238.78-41.22L246.91-41.22L232.45-20.54L247.17 0L238.98 0L228.29-15.10L217.60 0L209.41 0ZM252.74 0L267.46-20.54L253.06-41.22L261.12-41.22L271.62-25.92L282.11-41.22L290.24-41.22L275.78-20.54L290.50 0L282.30 0L271.62-15.10L260.93 0L252.74 0ZM296.06 0L310.78-20.54L296.38-41.22L304.45-41.22L314.94-25.92L325.44-41.22L333.57-41.22L319.10-20.54L333.82 0L325.63 0L314.94-15.10L304.26 0L296.06 0Z" fill="#ffffff" data-darkreader-inline-fill="" style="--darkreader-inline-fill: #181a1b;"></path></g></g><style>text {
  font-size: 64px;
  font-family: Arial Black;
  dominant-baseline: central;
  text-anchor: middle;
}</style><style class="darkreader darkreader--sync" media="screen"></style></svg>